<?xml version="1.0" encoding="utf-8" ?>
<svg xmlns="http://www.w3.org/2000/svg" xmlns:xlink="http://www.w3.org/1999/xlink" width="258" height="100">
	<path d="M190.648 82.8746C192.524 82.6664 194.063 82.7787 195.665 83.9285Q195.937 84.1267 196.189 84.3505Q196.44 84.5743 196.669 84.8216Q196.897 85.069 197.1 85.3374Q197.304 85.6059 197.48 85.8929Q197.656 86.1799 197.803 86.4827Q197.95 86.7856 198.067 87.1013Q198.184 87.4171 198.269 87.7428Q198.355 88.0684 198.408 88.4009C198.672 90.0344 198.411 91.7181 197.428 93.077C196.335 94.5898 194.825 95.1973 193.054 95.4784C192.302 95.7612 191.449 95.7137 190.673 95.5544C189.165 95.2452 187.978 94.2732 187.155 92.9979C186.185 91.4953 185.772 89.6098 186.161 87.8518C186.726 85.2975 188.603 84.1818 190.648 82.8746Z"/>
	<path d="M148.611 82.8744C150.521 82.6402 152.131 82.718 153.777 83.8795C155.216 84.8944 156.108 86.4391 156.392 88.1655C156.673 89.867 156.365 91.7467 155.341 93.1607C154.209 94.7234 152.854 95.2071 151.043 95.4859C150.356 95.6478 149.264 95.5605 148.571 95.4136C147.082 95.0984 145.716 94.2033 144.894 92.9175C144.011 91.5351 143.731 89.7853 144.083 88.1891C144.651 85.6107 146.522 84.2264 148.611 82.8744Z"/>
	<path d="M23.0318 56.3963C19.3682 57.3193 11.6035 57.7414 8.12414 56.3526C7.29587 56.022 6.39902 55.4717 6.04786 54.6083C4.92918 51.8579 8.44692 44.2825 9.56162 41.5778C9.94118 42.2309 10.2186 42.7697 10.3319 43.5222C10.7992 43.4401 11.4567 42.2449 11.7956 41.8387C11.9034 42.4144 12.047 42.9713 12.2051 43.535C11.4918 45.6964 9.61195 49.7496 10.6665 51.8906C11.0226 52.6138 11.6957 53.0588 12.4476 53.2978C15.2367 54.1842 19.3447 53.4735 22.3069 53.4966C22.3887 49.8816 23.1759 46.5439 25.1077 43.4716C25.3466 44.1019 25.5675 44.7142 25.9443 45.2779C26.836 44.6795 27.7136 44.8682 28.2591 43.9782L28.5997 44.1379L28.472 44.7158L28.6167 44.8523C26.9781 47.856 26.0822 50.9608 26.7153 54.39C27.7457 59.9714 31.9766 62.6594 36.331 65.6466C29.9426 63.6716 26.5304 62.3172 23.0318 56.3963Z"/>
	<path d="M185.693 25.0193C181.235 23.9173 173.957 24.6641 168.983 24.0908C169.268 23.7668 169.233 23.3423 169.479 22.9158C169.877 22.2258 170.285 21.4906 170.075 20.7107C168.225 20.2048 166.136 20.2803 164.226 20.1404Q158.923 19.724 153.617 19.3612C150.831 19.1649 147.994 18.7343 145.217 18.6347C142.245 18.5281 138.351 18.9569 135.527 18.1336C135.062 17.998 134.688 17.949 134.45 17.514C138.045 17.002 143.214 17.695 146.963 17.76C152.836 17.8619 158.72 17.7829 164.593 17.7907C168.437 17.7958 172.299 17.9402 176.14 17.8351C176.162 17.9887 176.151 18.11 176.109 18.2584C175.555 20.2379 173.647 21.4008 171.977 22.3535C178.213 22.1169 184.479 22.4497 190.719 22.4611C196.456 22.4716 238.88 21.9891 240.728 22.7159C241.411 22.7208 242.337 22.6118 242.856 23.1214C242.894 23.1587 242.901 23.1743 242.934 23.2217C243.607 23.4357 243.894 23.4366 244.329 24.0088C244.4 25.1927 243.558 26.6263 243.015 27.6412C240.476 32.3852 237.224 36.7342 234.41 41.3135C231.706 45.7143 229.503 51.0013 226.071 54.8633C224.784 56.3126 223.861 56.4496 221.985 56.5584C214.402 56.998 206.59 56.6171 198.975 56.5965C188.771 56.5689 178.467 56.79 168.273 56.458C168.48 58.4823 160.364 72.8335 158.561 75.0685C158.204 75.5108 157.742 75.8778 157.298 76.2304C161.046 76.1874 204.115 79.8347 204.385 80.0838C204.4 80.0978 204.413 80.1134 204.427 80.1283C201.756 80.7391 194.874 80.201 191.707 80.1635L167.813 80.0444C161.777 80.0075 155.575 80.4752 149.566 80.1788C148.351 80.1188 146.968 79.9284 145.926 79.267C145.441 78.9592 145.058 78.5606 144.931 77.9857C144.133 74.3973 158.308 56.7636 157.584 53.1375C150.672 53.6475 143.636 53.462 136.709 53.5Q120.462 53.5661 104.22 53.9517C93.9258 54.2245 83.5895 54.2959 73.3063 54.7324C64.5081 55.1059 55.4986 56.0323 46.7117 55.4893C46.2597 51.1382 46.8027 45.8272 42.981 42.733C40.9245 41.0679 37.853 40.6907 35.2882 40.9844C32.397 41.3156 30.4809 42.7148 28.6167 44.8523L28.472 44.7158L28.5997 44.1379L28.2591 43.9782C27.7136 44.8682 26.836 44.6795 25.9443 45.2779C25.5675 44.7142 25.3466 44.1019 25.1077 43.4716C23.1759 46.5439 22.3887 49.8816 22.3069 53.4966C19.3447 53.4735 15.2367 54.1842 12.4476 53.2978C11.6957 53.0588 11.0226 52.6138 10.6665 51.8906C9.61195 49.7496 11.4918 45.6964 12.2051 43.535C12.047 42.9713 11.9034 42.4144 11.7956 41.8387C11.4567 42.2449 10.7992 43.4401 10.3319 43.5222C10.2186 42.7697 9.94118 42.2309 9.56162 41.5778C10.1089 39.9554 10.9403 38.0661 11.9535 36.6842C14.638 33.023 22.9177 32.7566 27.1168 32.3067C33.2999 31.6442 43.6241 31.203 49.1064 29.3781C52.211 28.3446 54.9579 26.4865 57.8601 25.0075C64.2096 21.7716 70.8759 19.4303 77.9311 18.3421C93.4564 15.9474 107.965 20.1182 122.813 24.1384C125.566 24.8836 130.36 25.5513 132.541 27.1488C131.988 27.3141 109.842 21.4567 106.775 20.8497C92.8101 18.0861 78.3687 18.0437 65.3028 24.3209C61.3649 26.2127 57.7063 28.6467 54.0822 31.0729C57.4873 30.7017 61.0304 30.946 64.4541 30.9837Q74.2284 31.083 84.0001 31.3318L103.899 31.7487C107.8 31.8188 111.784 31.7307 115.669 32.0417C121.292 31.9036 126.927 32.2096 132.551 32.2518C140.943 32.3149 149.353 32.1875 157.74 32.5235C160.592 32.3322 163.545 32.4747 166.405 32.4812Q174.474 32.503 182.541 32.6452C182.707 32.4975 182.864 32.3332 182.984 32.1462C183.986 30.5927 186.127 26.9391 185.693 25.0193ZM200.616 45.3761C196.655 45.7418 195.506 46.8836 192.129 48.4276C192.919 47.6412 193.95 46.8437 193.958 45.6347Q193.958 45.5789 193.956 45.5232C189.04 45.6385 183.696 44.5723 179.025 46.4148C177.554 46.9949 176.367 48.0299 174.922 48.6477C175.585 48.1112 176.452 47.5561 176.74 46.7235C176.698 46.5274 176.702 46.2598 176.528 46.1517C175.974 45.807 175.321 45.7717 174.684 45.7746C172.336 45.7852 169.983 46.0687 167.631 46.1053Q142.555 46.5465 117.487 47.3079C94.789 47.7932 71.9957 47.7097 49.3214 48.8104C49.422 50.2319 49.5126 51.6093 49.3754 53.0311C55.3413 52.3093 61.854 52.7813 67.875 52.8161Q111.116 53.0042 154.353 52.4508C157.116 52.395 159.824 51.5933 162.582 51.5135C173.519 51.1971 184.493 51.4618 195.434 51.4749C203.891 51.485 212.47 51.1715 220.912 51.4982C222.111 50.3404 223.097 48.1234 223.892 46.643C222.836 45.6559 219.252 45.6958 217.818 45.7455C214.655 45.8552 212.772 46.6908 209.927 47.9782L209.796 47.693C210.111 46.9752 210.327 46.7083 210.193 45.9227C209.652 45.2853 208.814 45.1927 208.026 45.1295C205.629 44.9372 203.014 45.1875 200.616 45.3761ZM113.676 32.9837C107.843 33.4333 101.76 33.0728 95.906 33.0715C74.2723 33.0667 52.3943 32.2664 30.9013 35.0076C25.4434 35.7037 19.9931 36.4178 14.7055 37.9957C13.5994 39.6293 12.8709 41.6814 12.2051 43.535C11.4918 45.6964 9.61195 49.7496 10.6665 51.8906C11.0226 52.6138 11.6957 53.0588 12.4476 53.2978C15.2367 54.1842 19.3447 53.4735 22.3069 53.4966C22.3887 49.8816 23.1759 46.5439 25.1077 43.4716Q25.1924 43.3627 25.2807 43.2566C27.3874 40.729 30.1676 38.6997 33.4489 38.0763C37.9773 37.216 42.6494 37.6425 47.2323 37.6751Q56.194 37.7417 65.1557 37.6902L143.998 37.7858C155.841 37.7957 168.482 38.7699 180.21 37.7131C180.22 37.7033 180.23 37.6936 180.24 37.6835C181.079 36.8349 181.549 35.5691 181.531 34.3863C177.564 34.5615 173.359 33.9978 169.383 33.7609C165.91 33.554 162.423 33.5902 158.958 33.3019L113.676 32.9837ZM161.683 38.6247C156.54 39.1951 150.681 38.7424 145.466 38.7519C136.204 38.7689 126.919 38.9584 117.656 39.1186L78.7814 39.8138Q67.7288 40.1126 56.6724 40.2099C52.7406 40.2556 48.7219 40.4545 44.7988 40.2761C46.2971 41.7988 47.4109 43.3944 48.4892 45.2283C59.7776 45.259 71.0897 45.0385 82.375 45.2116C92.0709 45.2748 175.689 46.0235 177.769 44.3338C174.77 41.8473 162.112 43.9359 159.237 42.4931C165.489 41.4392 172.15 43.0329 178.43 42.118C179.162 41.2963 179.931 40.1234 179.872 38.9662C179.864 38.8081 179.833 38.6581 179.791 38.506L168.031 38.5735C165.947 38.5792 163.753 38.4463 161.683 38.6247ZM190.444 35.3741C186.845 35.9645 183.21 37.1323 180.971 40.2222C180.671 40.6361 180.403 41.2072 180.496 41.7318C180.517 41.8533 180.514 41.8325 180.608 41.8928C182.026 42.7998 185.977 42.2982 187.687 42.2704L195.231 42.25C196.464 41.0341 197.923 37.6869 197.929 35.9045Q197.932 35.6309 197.889 35.3607C195.392 35.4285 192.939 35.1198 190.444 35.3741ZM206.394 36.1241C202.828 36.4261 199.734 37.9386 197.403 40.6966C197.028 41.1406 196.7 41.4194 196.687 42.0201C197.774 42.7703 202.478 42.266 203.937 42.2453L211.473 42.2506C212.926 41.0955 213.801 38.8155 214.018 37.0086C214.06 36.6541 214.046 36.3962 213.91 36.0622C211.423 36.0581 208.871 35.9072 206.394 36.1241ZM196.332 25.8743C194.724 26.1409 192.89 26.306 191.368 26.8896C188.461 28.0048 186.955 31.4868 184.076 33.0238C186.052 32.834 188.108 32.8362 190.062 32.6Q194.833 32.6059 199.603 32.558C200.767 31.5209 201.845 28.3445 201.926 26.7634C201.946 26.3695 201.87 25.9855 201.748 25.6123C199.955 25.6918 198.111 25.6513 196.332 25.8743ZM228.18 27.125C221.597 28.4354 222.439 30.2453 217.738 32.7784C220.37 32.5911 223.048 32.7052 225.687 32.7188C228.208 32.7747 231.949 33.3662 233.919 31.4522C234.817 30.5803 235.654 28.6304 235.71 27.3818C233.208 26.9466 230.703 27.028 228.18 27.125ZM214.62 26.3748C211.056 26.9251 205.173 28.7988 202.878 31.7002L202.815 32.2416C203.623 32.811 204.943 32.6525 205.937 32.6833C209.248 32.5779 212.554 32.7841 215.857 32.6953C216.973 31.6912 218.267 28.5029 218.35 26.9822C218.362 26.7656 218.342 26.5435 218.302 26.3307C217.086 26.3425 215.831 26.2904 214.62 26.3748ZM222.074 36.8747C217.674 37.5839 215.302 40.7234 211.428 42.2615L220.187 42.2751C222.349 42.2833 224.583 42.1873 226.736 42.3311C227.512 41.6813 229.768 38.3097 229.836 37.3218C229.846 37.1846 229.83 37.059 229.801 36.9254C227.21 36.628 224.668 36.7023 222.074 36.8747ZM162.452 52.3745C162.832 52.5561 163.194 52.6555 163.616 52.6733C172.087 53.0307 180.707 52.6883 189.192 52.6812L207.52 52.6061C211.408 52.6154 215.298 52.7765 219.186 52.6637L219.124 52.3348L218.882 52.2395L219.002 52.4371L218.563 52.5751L218.407 52.0468C218.383 52.0584 218.36 52.0704 218.336 52.0814C217.173 52.6218 178.374 52.2978 174.21 52.2822C170.587 52.2685 165.928 51.755 162.452 52.3745ZM240.728 22.7159L240.498 23.102C233.262 23.4377 225.896 22.8319 218.696 23.4172C219.128 23.8209 238.5 23.825 240.648 23.745C241.522 23.7125 242.105 23.3235 242.934 23.2217C242.901 23.1743 242.894 23.1587 242.856 23.1214C242.337 22.6118 241.411 22.7208 240.728 22.7159ZM46.6604 48.4338C46.6406 48.9922 47.1602 54.3358 47.3165 54.5923L47.5852 54.1889C47.6601 52.9222 47.959 50.6928 47.3066 49.5507C47.1627 49.2987 47.1001 48.8129 47.0227 48.5213L46.6604 48.4338Z"/>
	<path d="M46.6604 48.4338L47.0227 48.5213C47.1001 48.8129 47.1627 49.2987 47.3066 49.5507C47.959 50.6928 47.6601 52.9222 47.5852 54.1889L47.3165 54.5923C47.1602 54.3358 46.6406 48.9922 46.6604 48.4338Z"/>
	<path d="M240.728 22.7159C241.411 22.7208 242.337 22.6118 242.856 23.1214C242.894 23.1587 242.901 23.1743 242.934 23.2217C242.105 23.3235 241.522 23.7125 240.648 23.745C238.5 23.825 219.128 23.8209 218.696 23.4172C225.896 22.8319 233.262 23.4377 240.498 23.102L240.728 22.7159Z"/>
	<path d="M162.452 52.3745C165.928 51.755 170.587 52.2685 174.21 52.2822C178.374 52.2978 217.173 52.6218 218.336 52.0814C218.36 52.0704 218.383 52.0584 218.407 52.0468L218.563 52.5751L219.002 52.4371L218.882 52.2395L219.124 52.3348L219.186 52.6637C215.298 52.7765 211.408 52.6154 207.52 52.6061L189.192 52.6812C180.707 52.6883 172.087 53.0307 163.616 52.6733C163.194 52.6555 162.832 52.5561 162.452 52.3745Z"/>
</svg>
